<?xml version="1.0" encoding="UTF-8" standalone="no"?>
<svg
   xmlns:dc="http://purl.org/dc/elements/1.1/"
   xmlns:cc="http://creativecommons.org/ns#"
   xmlns:rdf="http://www.w3.org/1999/02/22-rdf-syntax-ns#"
   xmlns:svg="http://www.w3.org/2000/svg"
   xmlns="http://www.w3.org/2000/svg"
   xmlns:sodipodi="http://sodipodi.sourceforge.net/DTD/sodipodi-0.dtd"
   xmlns:inkscape="http://www.inkscape.org/namespaces/inkscape"
   version="1.1"
   x="0px"
   y="0px"
   viewBox="0 0 882 300"
   style="enable-background:new 0 0 882 300;"
   id="svg4832"
   sodipodi:docname="banner.svg"
   inkscape:version="0.92.4 5da689c313, 2019-01-14">
  <metadata
     id="metadata4838">
    <rdf:RDF>
      <cc:Work
         rdf:about="">
        <dc:format>image/svg+xml</dc:format>
        <dc:type
           rdf:resource="http://purl.org/dc/dcmitype/StillImage" />
        <dc:title></dc:title>
      </cc:Work>
    </rdf:RDF>
  </metadata>
  <defs
     id="defs4836" />
  <sodipodi:namedview
     pagecolor="#ffffff"
     bordercolor="#666666"
     borderopacity="1"
     objecttolerance="10"
     gridtolerance="10"
     guidetolerance="10"
     inkscape:pageopacity="0"
     inkscape:pageshadow="2"
     inkscape:window-width="3840"
     inkscape:window-height="2117"
     id="namedview4834"
     showgrid="false"
     showguides="false"
     inkscape:zoom="1.8333333"
     inkscape:cx="556.56698"
     inkscape:cy="72.513346"
     inkscape:window-x="0"
     inkscape:window-y="23"
     inkscape:window-maximized="1"
     inkscape:current-layer="svg4832" />
  <style
     type="text/css"
     id="style4698">
	.st0{fill:#C4C3C6;}
	.st1{fill:#FFFFFF;}
	.st2{fill-rule:evenodd;clip-rule:evenodd;}
	.st3{fill-rule:evenodd;clip-rule:evenodd;fill:#C4C3C6;}
	.st4{fill-rule:evenodd;clip-rule:evenodd;fill:#FFFFFF;}
	.st5{fill:#010101;}
	.st6{fill:none;}
	.st7{fill-rule:evenodd;clip-rule:evenodd;fill:#B1B2B7;}
	.st8{fill-rule:evenodd;clip-rule:evenodd;fill:#FDFDFD;}
	.st9{fill-rule:evenodd;clip-rule:evenodd;fill:#F9F9F9;}
</style>
  <path
     d="M 6 0 C 2.7 0 0 2.7 0 6 L 0 203 C 0 206.3 2.7 209 6 209 L 580.11133 209 C 583.94767 217.7142 589.0793 225.88395 595.15234 232.66016 C 594.25071 234.85267 593.75802 237.22443 593.89453 239.7207 C 594.02666 244.70091 596.42244 248.95619 600.19727 252.05469 C 602.90665 254.35017 606.31886 255.92633 610.25391 257.19336 C 616.89305 259.19382 625.33409 260.07456 634.44922 259.73633 C 643.56435 259.39811 651.93249 257.85745 658.4668 255.37695 C 662.29 253.86594 665.57374 252.02432 668.13867 249.48047 C 671.69945 246.101 673.86065 241.67552 673.72852 236.69531 C 673.65632 234.27564 673.00902 231.94836 671.99023 229.80078 C 676.77018 223.63503 680.80707 216.52231 683.92773 209 L 876 209 C 879.3 209 882 206.3 882 203 L 882 6 C 882 2.7 879.3 0 876 0 L 6 0 z "
     id="path4700" />
  <g
     aria-label="Query Resolver Toolkit"
     style="font-style:normal;font-variant:normal;font-weight:normal;font-stretch:normal;font-size:48.182827px;line-height:1.25;font-family:'Titillium Web';-inkscape-font-specification:'Titillium Web';text-align:start;letter-spacing:0px;word-spacing:0px;text-anchor:start;fill:#ffffff;fill-opacity:1;stroke:none;stroke-width:1.20457077"
     id="text4951">
    <path
       d="m 75.772144,101.17539 q -7.468338,0 -10.311125,-4.095544 -2.842787,-4.095541 -2.842787,-12.864815 0,-8.817457 2.89097,-13.057546 2.890969,-4.288272 10.262942,-4.288272 7.371972,0 10.262942,4.240089 2.939152,4.240089 2.939152,13.057546 0,6.119219 -1.252753,9.829297 -1.252754,3.661895 -4.288272,5.444659 l 4.095541,6.601046 -3.469164,1.63822 -4.240089,-6.93833 q -1.590033,0.43365 -4.047357,0.43365 z M 66.424675,84.166848 q 0,7.32379 1.927313,10.552039 1.927314,3.180067 7.420156,3.180067 5.541025,0 7.420155,-3.083701 1.927313,-3.131884 1.927313,-10.503856 0,-7.420156 -1.975496,-10.792954 -1.975496,-3.372798 -7.420155,-3.372798 -5.396477,0 -7.371973,3.372798 -1.927313,3.324615 -1.927313,10.648405 z"
       style="fill:#ffffff;fill-opacity:1;stroke-width:1.20457077"
       id="path5295" />
    <path
       d="m 110.17468,76.602144 h 3.61371 v 24.091416 h -3.61371 v -1.686401 q -3.61372,2.168231 -7.13106,2.168231 -4.914651,0 -6.552867,-2.553694 -1.590033,-2.55369 -1.590033,-9.443834 V 76.602144 h 3.613712 v 12.527535 q 0,5.251928 0.915473,7.034693 0.915475,1.782765 4.143725,1.782765 1.59003,0 3.22825,-0.433646 1.63821,-0.481828 2.5055,-0.915474 l 0.8673,-0.433645 z"
       style="fill:#ffffff;fill-opacity:1;stroke-width:1.20457077"
       id="path5297" />
    <path
       d="m 137.10879,97.706222 1.3973,-0.144548 0.0964,2.842786 q -5.49284,0.77093 -9.39565,0.77093 -5.20375,0 -7.37198,-2.987339 -2.16822,-3.035518 -2.16822,-9.395652 0,-12.672083 10.07021,-12.672083 4.86646,0 7.2756,2.746421 2.40915,2.698238 2.40915,8.52836 l -0.19274,2.746422 H 123.3285 q 0,3.999174 1.44549,5.926487 1.44548,1.927313 5.01101,1.927313 3.61371,0 7.32379,-0.289097 z m -1.30094,-10.455673 q 0,-4.43282 -1.44548,-6.263768 -1.3973,-1.830947 -4.62555,-1.830947 -3.18007,0 -4.81829,1.927313 -1.59003,1.927313 -1.63821,6.167402 z"
       style="fill:#ffffff;fill-opacity:1;stroke-width:1.20457077"
       id="path5299" />
    <path
       d="M 145.05892,100.69356 V 76.602144 h 3.56552 v 3.276432 q 4.19191,-2.890969 8.81746,-3.806443 v 3.661895 q -2.02368,0.385463 -4.24009,1.204571 -2.16822,0.819108 -3.32461,1.445484 l -1.20457,0.626377 v 17.6831 z"
       style="fill:#ffffff;fill-opacity:1;stroke-width:1.20457077"
       id="path5301" />
    <path
       d="m 159.46552,76.602144 h 3.61371 l 6.02285,20.95953 h 1.59004 l 6.07103,-20.95953 h 3.61372 l -10.02203,34.788006 h -3.61371 l 3.13188,-10.69659 h -3.56553 z"
       style="fill:#ffffff;fill-opacity:1;stroke-width:1.20457077"
       id="path5303" />
    <path
       d="m 199.93906,87.925109 v 12.768451 h -3.71008 V 67.351041 h 12.3348 q 5.30011,0 7.95017,2.457325 2.69824,2.457324 2.69824,7.661069 0,7.709252 -6.11922,9.684748 l 6.40831,13.539377 h -4.09554 l -6.02285,-12.768451 z m 8.6729,-3.276433 q 6.79378,0 6.79378,-6.98651 0,-7.034692 -6.84196,-7.034692 h -8.62472 v 14.021202 z"
       style="fill:#ffffff;fill-opacity:1;stroke-width:1.20457077"
       id="path5305" />
    <path
       d="m 241.23167,97.706222 1.3973,-0.144548 0.0964,2.842786 q -5.49284,0.77093 -9.39565,0.77093 -5.20374,0 -7.37197,-2.987339 -2.16823,-3.035518 -2.16823,-9.395652 0,-12.672083 10.07021,-12.672083 4.86647,0 7.27561,2.746421 2.40914,2.698238 2.40914,8.52836 l -0.19273,2.746422 h -15.90033 q 0,3.999174 1.44548,5.926487 1.44549,1.927313 5.01102,1.927313 3.61371,0 7.32379,-0.289097 z m -1.30094,-10.455673 q 0,-4.43282 -1.44549,-6.263768 -1.3973,-1.830947 -4.62555,-1.830947 -3.18006,0 -4.81828,1.927313 -1.59003,1.927313 -1.63822,6.167402 z"
       style="fill:#ffffff;fill-opacity:1;stroke-width:1.20457077"
       id="path5307" />
    <path
       d="m 256.74648,79.348565 q -5.25192,0 -5.25192,3.661895 0,1.686399 1.20457,2.409142 1.20457,0.674559 5.49284,1.445484 4.28827,0.722743 6.07103,2.071862 1.78277,1.349119 1.78277,5.059197 0,3.710077 -2.40914,5.444659 -2.36096,1.734586 -6.93833,1.734586 -2.98733,0 -7.03469,-0.67456 l -1.44549,-0.24092 0.19273,-3.131881 q 5.49285,0.819108 8.28745,0.819108 2.7946,0 4.24009,-0.867291 1.49367,-0.915474 1.49367,-2.987336 0,-2.120044 -1.25276,-2.842786 -1.25275,-0.770926 -5.49284,-1.445485 -4.24009,-0.67456 -6.02285,-1.975496 -1.78277,-1.300936 -1.78277,-4.818283 0,-3.517346 2.45733,-5.203745 2.5055,-1.686399 6.21558,-1.686399 2.93915,0 7.37197,0.67456 l 1.34912,0.240914 -0.0964,3.083701 q -5.3483,-0.770926 -8.432,-0.770926 z"
       style="fill:#ffffff;fill-opacity:1;stroke-width:1.20457077"
       id="path5309" />
    <path
       d="m 270.5267,88.599668 q 0,-6.601047 2.36095,-9.5402 2.36096,-2.939152 7.95017,-2.939152 5.63739,0 7.95017,2.939152 2.36096,2.939153 2.36096,9.5402 0,6.601047 -2.21642,9.588383 -2.21641,2.987339 -8.09471,2.987339 -5.8783,0 -8.09471,-2.987339 -2.21641,-2.987336 -2.21641,-9.588383 z m 3.71007,-0.04818 q 0,5.251928 1.25276,7.371973 1.30093,2.120044 5.34829,2.120044 4.09554,0 5.34829,-2.071861 1.25276,-2.120045 1.25276,-7.420156 0,-5.300111 -1.3973,-7.275607 -1.39731,-2.023678 -5.20375,-2.023678 -3.75826,0 -5.20375,2.023678 -1.3973,1.975496 -1.3973,7.275607 z"
       style="fill:#ffffff;fill-opacity:1;stroke-width:1.20457077"
       id="path5311" />
    <path
       d="M 297.31634,100.69356 V 66.098288 h 3.61371 v 34.595272 z"
       style="fill:#ffffff;fill-opacity:1;stroke-width:1.20457077"
       id="path5313" />
    <path
       d="m 305.89283,76.602144 h 3.85463 l 5.63739,20.95953 h 1.78277 l 5.83012,-20.95953 h 3.71007 l -6.79377,24.091416 h -7.22743 z"
       style="fill:#ffffff;fill-opacity:1;stroke-width:1.20457077"
       id="path5315" />
    <path
       d="m 347.28179,97.706222 1.3973,-0.144548 0.0964,2.842786 q -5.49284,0.77093 -9.39565,0.77093 -5.20375,0 -7.37198,-2.987339 -2.16822,-3.035518 -2.16822,-9.395652 0,-12.672083 10.07021,-12.672083 4.86646,0 7.2756,2.746421 2.40915,2.698238 2.40915,8.52836 l -0.19274,2.746422 H 333.5015 q 0,3.999174 1.44549,5.926487 1.44548,1.927313 5.01101,1.927313 3.61371,0 7.32379,-0.289097 z m -1.30094,-10.455673 q 0,-4.43282 -1.44548,-6.263768 -1.3973,-1.830947 -4.62555,-1.830947 -3.18007,0 -4.81828,1.927313 -1.59004,1.927313 -1.63822,6.167402 z"
       style="fill:#ffffff;fill-opacity:1;stroke-width:1.20457077"
       id="path5317" />
    <path
       d="M 355.23194,100.69356 V 76.602144 h 3.56552 v 3.276432 q 4.19191,-2.890969 8.81746,-3.806443 v 3.661895 q -2.02368,0.385463 -4.24009,1.204571 -2.16822,0.819108 -3.32461,1.445484 l -1.20457,0.626377 v 17.6831 z"
       style="fill:#ffffff;fill-opacity:1;stroke-width:1.20457077"
       id="path5319" />
    <path
       d="m 379.66051,70.675657 v -3.324616 h 24.09141 v 3.324616 h -10.16657 v 30.017903 h -3.6619 V 70.675657 Z"
       style="fill:#ffffff;fill-opacity:1;stroke-width:1.20457077"
       id="path5321" />
    <path
       d="m 402.40269,88.599668 q 0,-6.601047 2.36096,-9.5402 2.36095,-2.939152 7.95016,-2.939152 5.63739,0 7.95017,2.939152 2.36096,2.939153 2.36096,9.5402 0,6.601047 -2.21641,9.588383 -2.21641,2.987339 -8.09472,2.987339 -5.8783,0 -8.09471,-2.987339 -2.21641,-2.987336 -2.21641,-9.588383 z m 3.71007,-0.04818 q 0,5.251928 1.25276,7.371973 1.30093,2.120044 5.34829,2.120044 4.09554,0 5.3483,-2.071861 1.25275,-2.120045 1.25275,-7.420156 0,-5.300111 -1.3973,-7.275607 -1.3973,-2.023678 -5.20375,-2.023678 -3.75826,0 -5.20374,2.023678 -1.39731,1.975496 -1.39731,7.275607 z"
       style="fill:#ffffff;fill-opacity:1;stroke-width:1.20457077"
       id="path5323" />
    <path
       d="m 427.84324,88.599668 q 0,-6.601047 2.36096,-9.5402 2.36096,-2.939152 7.95016,-2.939152 5.63739,0 7.95017,2.939152 2.36096,2.939153 2.36096,9.5402 0,6.601047 -2.21641,9.588383 -2.21641,2.987339 -8.09472,2.987339 -5.8783,0 -8.09471,-2.987339 -2.21641,-2.987336 -2.21641,-9.588383 z m 3.71008,-0.04818 q 0,5.251928 1.25275,7.371973 1.30094,2.120044 5.34829,2.120044 4.09554,0 5.3483,-2.071861 1.25275,-2.120045 1.25275,-7.420156 0,-5.300111 -1.3973,-7.275607 -1.3973,-2.023678 -5.20375,-2.023678 -3.75826,0 -5.20374,2.023678 -1.3973,1.975496 -1.3973,7.275607 z"
       style="fill:#ffffff;fill-opacity:1;stroke-width:1.20457077"
       id="path5325" />
    <path
       d="M 454.63288,100.69356 V 66.098288 h 3.61371 v 34.595272 z"
       style="fill:#ffffff;fill-opacity:1;stroke-width:1.20457077"
       id="path5327" />
    <path
       d="m 469.08768,100.69356 h -3.61371 V 66.098288 h 3.61371 v 20.429519 l 3.75826,-0.192732 6.89015,-9.732931 h 4.09554 l -7.8538,11.08205 8.19108,13.009366 h -4.09554 l -7.17924,-11.178418 -3.80645,0.144548 z"
       style="fill:#ffffff;fill-opacity:1;stroke-width:1.20457077"
       id="path5329" />
    <path
       d="M 488.55344,100.69356 V 76.602144 h 3.61371 v 24.091416 z m 0,-29.536075 v -4.191906 h 3.61371 v 4.191906 z"
       style="fill:#ffffff;fill-opacity:1;stroke-width:1.20457077"
       id="path5331" />
    <path
       d="m 511.58482,79.734028 h -7.66107 v 11.515696 q 0,4.143723 0.5782,5.444659 0.62637,1.300936 2.89097,1.300936 l 4.28827,-0.289097 0.24091,2.987338 q -3.22825,0.53001 -4.91465,0.53001 -3.75826,0 -5.20374,-1.830949 -1.44549,-1.830947 -1.44549,-6.98651 V 79.734028 h -3.42098 v -3.131884 h 3.42098 v -7.371972 h 3.56553 v 7.371972 h 7.66107 z"
       style="fill:#ffffff;fill-opacity:1;stroke-width:1.20457077"
       id="path5333" />
  </g>
  <g
     id="Layer_2" />
  <g
     id="Layer_3" />
  <path
     id="Shape"
     class="st3"
     d="m 667.2322,99.205926 c -5.10082,2.321984 -15.30074,3.700994 -27.18158,4.010194 -17.2071,0.34007 -30.77417,-1.98259 -30.82705,-6.24606 -0.0423,-1.139392 0.97823,-2.256782 2.83172,-3.159335 -1.59902,0.42795 -3.06948,1.00911 -4.46334,1.52599 0.24824,-6.082629 -3.27304,-13.701722 -17.11392,-13.705969 -14.34014,0.02305 -30.5555,24.725324 -18.68673,47.270884 8.53065,16.07818 11.07463,30.00004 8.99053,38.40638 -1.62804,3.19366 -1.60776,5.39584 -0.0158,6.67082 0.796,0.63748 1.62897,0.85232 2.57552,0.58023 -0.01,0.9219 -0.007,1.70292 0.0599,2.56055 0.66677,19.15216 11.11438,41.71535 26.06045,54.23792 -3.06417,2.57115 -4.87273,5.39412 -4.73622,7.89039 0.21404,6.47798 13.3118,10.10821 29.26328,9.51632 15.95148,-0.59189 28.84223,-5.14256 28.56391,-11.69714 -0.005,-1.56204 -2.62045,-2.50064 -7.83313,-2.95669 -3.59868,-0.24387 -8.92494,-0.21299 -15.97878,0.0926 -10.61289,0.42013 -15.22506,-0.40927 -20.77676,-2.6695 12.42502,1.58392 27.24493,-7.97957 39.75346,-19.51979 22.15803,-20.42037 22.09973,-37.60282 22.0328,-38.46045 -0.45538,-13.45521 -6.48009,-30.5918 -24.87071,-39.44081 -6.06593,-2.87307 -6.13471,-11.82267 -4.81308,-14.75921 5.63255,-11.64493 17.08186,-18.38015 17.16549,-20.147354 z m -71.93394,6.838044 c 1.97237,0.17256 3.99404,-0.21842 5.69431,-0.99241 1.18697,2.65915 3.89198,7.43858 8.43907,15.50232 1.53302,2.76041 2.10105,11.68271 -3.80279,15.07013 -8.74086,4.98472 -14.36466,11.66176 -17.82326,18.74117 -1.20552,-8.1263 -4.55424,-17.71775 -9.82868,-28.82632 -4.79718,-10.07309 -1.78416,-20.17268 0.5703,-24.3675 2.35446,-4.194818 7.60757,-10.691347 13.86541,-11.634454 4.03101,-0.641063 7.69225,2.94437 7.03806,6.365194 -0.66651,3.561708 -6.74119,5.65653 -8.20993,2.972725 -0.18051,-0.370696 -0.5292,-1.252973 -0.35134,-1.663297 0.24478,0.447301 0.84794,0.854975 1.87375,1.299626 2.40469,-0.712368 3.61804,-1.599944 3.8452,-2.573801 0.37772,-1.883435 -1.22924,-3.798546 -3.60928,-3.367945 -3.0325,0.586459 -5.35529,2.796589 -7.70273,5.288484 1.17995,4.362078 5.071,7.754678 10.00191,8.186078 z"
     inkscape:connector-curvature="0"
     style="clip-rule:evenodd;fill:#c4c3c6;fill-rule:evenodd" />
  <g
     id="Group-28"
     transform="matrix(-0.75470958,0.65605903,0.65605903,0.75470958,116.47633,100.27131)">
    <path
       d="m -339.4,377.8 c -4.3,-4.8 -0.9,-10.2 5.1,-13.2 3.1,-1.5 6.3,-2.2 8.7,-0.1 1.7,1.1 2.3,3.3 1.5,5.1 -1.1,2.8 -3.4,4.9 -6.2,5.7 -0.7,0.3 -1.5,0.4 -2.2,0.2 1.5,-1.5 2.8,-3.2 3.8,-5.1 1.1,-2.6 -0.2,-4.4 -3.1,-4.1 -2.9,0.5 -5.4,2.5 -6.4,5.3 -0.5,1.3 -0.5,2.8 0.1,4 0.6,1.3 1.7,2.2 3.1,2.6 3.9,1 8,0 10.9,-2.8 3.1,-2.3 4.4,-6.3 3.3,-10 -0.7,-2.5 -3.2,-7.3 -10.7,-5.3 -4.8,0.9 -12.1,7.6 -13.3,11.9 -1,3.9 -0.2,6.9 3,9 2.1,1 4.4,1.6 6.7,1.5 0.8,0 1.6,-0.1 2.4,-0.2 0,-0.1 0,-0.2 0.1,-0.3 -2.6,-0.7 -5,-2.2 -6.8,-4.2 z"
       id="path4814"
       inkscape:connector-curvature="0" />
    <path
       id="Path-Copy-25"
       d="m -344,387.1 c 4.2,4.6 0.8,9.8 -4.9,12.6 -3,1.5 -6.1,2.1 -8.4,0.1 -1.6,-1.1 -2.2,-3.1 -1.4,-4.9 1,-2.7 3.2,-4.7 6,-5.4 0.7,-0.3 1.4,-0.4 2.1,-0.2 -1.4,1.4 -2.7,3.1 -3.6,4.9 -1.1,2.5 0.2,4.2 3,3.9 2.8,-0.5 5.1,-2.4 6.1,-5 0.5,-1.3 0.4,-2.7 -0.1,-3.9 -0.6,-1.2 -1.7,-2.1 -2.9,-2.5 -3.7,-1 -7.7,0 -10.5,2.6 -3,2.2 -4.2,6.1 -3.1,9.6 0.7,2.4 3.1,7 10.3,5.1 4.6,-0.9 11.6,-7.3 12.7,-11.4 1,-3.7 0.2,-6.6 -2.9,-8.6 -2,-1 -4.2,-1.5 -6.4,-1.5 -0.8,0 -1.6,0.1 -2.3,0.2 0,0.1 0,0.2 -0.1,0.3 2.4,0.8 4.7,2.2 6.4,4.1 z"
       inkscape:connector-curvature="0" />
    <path
       id="Path-Copy-26"
       d="m -376.7,421 c -5,-4.1 -2.6,-10.2 2.6,-14.3 2.7,-2.1 5.7,-3.4 8.3,-1.6 1.8,0.8 2.8,2.9 2.3,4.9 -0.5,3 -2.4,5.6 -5,6.9 -0.6,0.4 -1.3,0.6 -2.1,0.6 1.2,-1.8 2.1,-3.8 2.8,-5.8 0.6,-2.9 -0.9,-4.5 -3.7,-3.6 -2.7,1 -4.7,3.5 -5.2,6.5 -0.3,1.4 0,2.9 0.8,4.1 0.8,1.2 2,2 3.4,2.1 3.9,0.3 7.6,-1.4 9.9,-4.7 2.5,-2.9 3.1,-7.2 1.4,-10.8 -1.1,-2.5 -4.3,-6.9 -11.2,-3.5 -4.4,1.8 -10.2,9.8 -10.6,14.4 -0.3,4.1 1,7.1 4.4,8.6 2.2,0.7 4.4,0.8 6.6,0.4 0.8,-0.1 1.5,-0.3 2.3,-0.6 0,-0.1 0,-0.2 0,-0.3 -2.5,-0.5 -4.9,-1.6 -7,-3.3 z"
       inkscape:connector-curvature="0" />
  </g>
  <path
     class="st4"
     d="m 645.68317,91.571187 c -1.90809,-0.09596 -3.96938,-0.06335 -5.95407,-0.09503 -7.52844,0.05115 -14.68353,0.70282 -19.81431,1.744532 -2.45664,0.494879 -4.42635,1.10334 -5.61505,1.709151 -1.03548,0.477253 -1.43083,0.93953 -1.37888,1.157017 0.052,0.217488 0.43763,0.677115 1.46344,1.121765 1.29525,0.610186 3.30724,1.141116 5.6776,1.632419 5.23998,0.955304 8.51728,0.816145 16.12232,0.700712 7.52844,-0.05115 4.20092,-3.394449 9.33169,-4.436161 2.45664,-0.494879 8.9663,-2.693609 0.16726,-3.534405 z"
     id="path4819"
     inkscape:connector-curvature="0"
     style="clip-rule:evenodd;fill:#ffffff;fill-rule:evenodd" />
  <path
     class="st2"
     d="m 657.17792,132.18412 c -6.11788,-3.09055 -3.4843,-8.04174 -2.16268,-10.97829 1.49949,-3.34687 7.85846,-15.99295 9.92413,-18.5095 -26.15737,19.07674 -42.84852,16.76469 -42.25146,22.92127 0.53279,6.07998 17.30399,1.79782 35.29661,10.32809 -0.67976,-0.34339 -0.12683,-3.41817 -0.8066,-3.76157 z"
     id="path4821"
     inkscape:connector-curvature="0"
     style="clip-rule:evenodd;fill-rule:evenodd" />
  <path
     class="st4"
     d="m 609.84059,233.52008 c -10.10913,9.26582 11.9805,13.96666 24.53846,13.21984 15.63008,-0.97491 28.39228,-5.67878 28.30679,-12.00355 -0.005,-1.56204 1.96799,2.6565 -17.98454,5.16973 -19.95254,2.51322 -29.93059,1.35633 -34.86071,-6.38602 z"
     id="path4823"
     inkscape:connector-curvature="0"
     style="clip-rule:evenodd;fill:#ffffff;fill-rule:evenodd" />
  <path
     id="Path-Copy-11"
     class="st4"
     d="m 634.28274,139.12463 c -23.25195,-7.64176 -45.39236,14.19977 -44.76257,33.77458 0.83853,24.49075 8.82142,33.84882 16.52877,48.79026 0.36102,0.74139 7.23528,4.11106 6.58454,1.00196 -1.02674,-4.49064 -10.06102,-18.05758 -11.86453,-36.38644 -3.19047,-30.87185 20.84411,-37.85464 33.51379,-47.18036 z"
     inkscape:connector-curvature="0"
     style="clip-rule:evenodd;fill:#ffffff;fill-rule:evenodd" />
  <path
     d="m 613.0705,91.131294 c -2.21186,0.94218 -3.08976,-1.193069 -5.09645,-0.161958 0.38567,0.459626 -0.24652,2.817664 -0.33279,3.803846 -0.82675,5.393188 -3.58716,6.926208 -5.94957,8.777958 -2.36242,1.85176 -5.04887,2.53948 -8.46705,2.66631 1.52507,0.41735 2.68209,1.79623 4.70375,1.40526 11.04257,-2.08608 21.65799,-13.082119 20.12935,-18.326474 -1.67563,0.492229 -3.2993,1.201946 -4.98724,1.835058 z"
     id="path4826"
     inkscape:connector-curvature="0" />
  <g
     aria-label="An AssemblyScript framework for custom query node resolvers"
     style="font-style:normal;font-variant:normal;font-weight:normal;font-stretch:normal;font-size:17.92412186px;line-height:1.25;font-family:'Titillium Web';-inkscape-font-specification:'Titillium Web';text-align:start;letter-spacing:0px;word-spacing:0px;text-anchor:start;fill:#c4c3c6;fill-opacity:1;stroke:none;stroke-width:0.44810304"
     id="text4947">
    <path
       d="m 62.827239,144.94243 3.405583,-12.40349 h 3.011253 l 3.405583,12.40349 h -1.362233 l -0.896206,-3.1905 h -5.30554 l -0.896206,3.1905 z m 4.445183,-11.2205 -1.882033,6.79324 h 4.69612 l -1.882033,-6.79324 z"
       style="text-align:start;text-anchor:start;fill:#c4c3c6;fill-opacity:1;stroke-width:0.44810304"
       id="path5336" />
    <path
       d="m 75.714661,144.94243 h -1.344309 v -8.96206 h 1.326385 v 0.62734 q 1.451854,-0.80658 2.778239,-0.80658 1.792412,0 2.401832,0.9679 0.627344,0.9679 0.627344,3.44143 v 4.73197 h -1.326385 v -4.69612 q 0,-1.86411 -0.376406,-2.54523 -0.358483,-0.69904 -1.559399,-0.69904 -0.573572,0 -1.21884,0.17924 -0.627345,0.16132 -0.967903,0.32264 l -0.340558,0.16132 z"
       style="text-align:start;text-anchor:start;fill:#c4c3c6;fill-opacity:1;stroke-width:0.44810304"
       id="path5338" />
    <path
       d="m 87.078519,144.94243 3.405583,-12.40349 h 3.011253 l 3.405583,12.40349 h -1.362233 l -0.896206,-3.1905 h -5.30554 l -0.896207,3.1905 z m 4.445182,-11.2205 -1.882032,6.79324 h 4.69612 l -1.882033,-6.79324 z"
       style="text-align:start;text-anchor:start;fill:#c4c3c6;fill-opacity:1;stroke-width:0.44810304"
       id="path5340" />
    <path
       d="m 101.43572,137.00204 q -1.953729,0 -1.953729,1.36224 0,0.62734 0.448103,0.8962 0.448106,0.25094 2.043346,0.53773 1.59525,0.26886 2.25844,0.77073 0.6632,0.50188 0.6632,1.88204 0,1.38015 -0.89621,2.02542 -0.87828,0.64527 -2.58107,0.64527 -1.1113,0 -2.616925,-0.25094 l -0.537724,-0.0896 0.0717,-1.16507 q 2.043353,0.30471 3.082953,0.30471 1.0396,0 1.57732,-0.32263 0.55565,-0.34056 0.55565,-1.1113 0,-0.78866 -0.46603,-1.05752 -0.46603,-0.28679 -2.04335,-0.53772 -1.577323,-0.25094 -2.240515,-0.73489 -0.663193,-0.48395 -0.663193,-1.79241 0,-1.30847 0.91413,-1.93581 0.932055,-0.62734 2.312208,-0.62734 1.09338,0 2.74239,0.25093 l 0.50188,0.0896 -0.0358,1.14715 q -1.98958,-0.28679 -3.13672,-0.28679 z"
       style="text-align:start;text-anchor:start;fill:#c4c3c6;fill-opacity:1;stroke-width:0.44810304"
       id="path5342" />
    <path
       d="m 109.7704,137.00204 q -1.95373,0 -1.95373,1.36224 0,0.62734 0.44811,0.8962 0.4481,0.25094 2.04335,0.53773 1.59524,0.26886 2.25844,0.77073 0.66319,0.50188 0.66319,1.88204 0,1.38015 -0.89621,2.02542 -0.87828,0.64527 -2.58107,0.64527 -1.1113,0 -2.61692,-0.25094 l -0.53773,-0.0896 0.0717,-1.16507 q 2.04335,0.30471 3.08295,0.30471 1.0396,0 1.57732,-0.32263 0.55565,-0.34056 0.55565,-1.1113 0,-0.78866 -0.46603,-1.05752 -0.46602,-0.28679 -2.04335,-0.53772 -1.57732,-0.25094 -2.24051,-0.73489 -0.6632,-0.48395 -0.6632,-1.79241 0,-1.30847 0.91413,-1.93581 0.93206,-0.62734 2.31222,-0.62734 1.09337,0 2.74239,0.25093 l 0.50187,0.0896 -0.0358,1.14715 q -1.98957,-0.28679 -3.13672,-0.28679 z"
       style="text-align:start;text-anchor:start;fill:#c4c3c6;fill-opacity:1;stroke-width:0.44810304"
       id="path5344" />
    <path
       d="m 121.3852,143.83113 0.5198,-0.0538 0.0358,1.05752 q -2.04335,0.28679 -3.4952,0.28679 -1.93581,0 -2.74239,-1.1113 -0.80659,-1.12922 -0.80659,-3.4952 0,-4.71404 3.74614,-4.71404 1.81034,0 2.70655,1.02167 0.8962,1.00375 0.8962,3.17257 l -0.0717,1.02168 h -5.91496 q 0,1.4877 0.53773,2.20466 0.53772,0.71697 1.86411,0.71697 1.34431,0 2.72446,-0.10755 z m -0.48395,-3.88953 q 0,-1.64902 -0.53772,-2.33014 -0.5198,-0.68111 -1.72072,-0.68111 -1.18299,0 -1.79241,0.71696 -0.5915,0.71697 -0.60942,2.29429 z"
       style="text-align:start;text-anchor:start;fill:#c4c3c6;fill-opacity:1;stroke-width:0.44810304"
       id="path5346" />
    <path
       d="m 125.68698,144.94243 h -1.34431 v -8.96206 h 1.32638 v 0.62734 q 1.34431,-0.80658 2.61693,-0.80658 1.66694,0 2.33013,0.91413 0.5915,-0.35849 1.52355,-0.62735 0.94998,-0.28678 1.66694,-0.28678 1.79242,0 2.40184,0.9679 0.62734,0.94998 0.62734,3.44143 v 4.73197 h -1.34431 v -4.69612 q 0,-1.86411 -0.35848,-2.54523 -0.35848,-0.69904 -1.52355,-0.69904 -0.5915,0 -1.21884,0.17924 -0.62735,0.16132 -0.9679,0.32264 l -0.34056,0.16132 q 0.23301,0.59149 0.23301,2.61692 v 4.66027 h -1.34431 v -4.62442 q 0,-1.93581 -0.35848,-2.61693 -0.34056,-0.69904 -1.52355,-0.69904 -0.57357,0 -1.18299,0.17924 -0.5915,0.16132 -0.91413,0.32264 l -0.30471,0.16132 z"
       style="text-align:start;text-anchor:start;fill:#c4c3c6;fill-opacity:1;stroke-width:0.44810304"
       id="path5348" />
    <path
       d="m 143.28844,135.80113 q 1.81033,0 2.5273,1.0396 0.73489,1.02167 0.73489,3.60274 0,2.58108 -0.91413,3.6386 -0.89621,1.0396 -3.31596,1.0396 -0.75282,0 -2.49146,-0.14339 l -0.50187,-0.0538 v -12.85159 h 1.32638 v 4.35556 q 1.36224,-0.62734 2.63485,-0.62734 z m -0.98583,8.11962 q 1.75657,0 2.31221,-0.78866 0.57358,-0.80658 0.57358,-2.70654 0,-1.89996 -0.44811,-2.65277 -0.4481,-0.77074 -1.59524,-0.77074 -1.0396,0 -2.13298,0.39433 l -0.35848,0.12547 v 6.30929 q 1.16507,0.0896 1.64902,0.0896 z"
       style="text-align:start;text-anchor:start;fill:#c4c3c6;fill-opacity:1;stroke-width:0.44810304"
       id="path5350" />
    <path
       d="m 148.86282,144.94243 v -12.86952 h 1.34431 v 12.86952 z"
       style="text-align:start;text-anchor:start;fill:#c4c3c6;fill-opacity:1;stroke-width:0.44810304"
       id="path5352" />
    <path
       d="m 152.0533,135.98037 h 1.34431 l 2.24052,7.79699 h 0.59149 l 2.25844,-7.79699 h 1.34431 l -3.72822,12.94121 h -1.34431 l 1.16507,-3.97915 h -1.32638 z"
       style="text-align:start;text-anchor:start;fill:#c4c3c6;fill-opacity:1;stroke-width:0.44810304"
       id="path5354" />
    <path
       d="m 165.2096,133.56061 q -2.68861,0 -2.68861,2.02543 0,1.12922 0.60942,1.5594 0.62734,0.41225 2.50937,0.84243 1.89996,0.41225 2.68862,1.09337 0.78866,0.66319 0.78866,2.20467 0,3.81784 -3.96123,3.81784 -1.30846,0 -3.28011,-0.30471 l -0.64527,-0.0896 0.14339,-1.14715 q 2.43768,0.32264 3.7103,0.32264 2.65277,0 2.65277,-2.49146 0,-1.00375 -0.5915,-1.43393 -0.57357,-0.4481 -2.16882,-0.75281 -2.09712,-0.4481 -2.9754,-1.14714 -0.87829,-0.71697 -0.87829,-2.38391 0,-3.33389 3.99708,-3.33389 1.30846,0 3.13672,0.26886 l 0.60943,0.0896 -0.12547,1.16507 q -2.49146,-0.30471 -3.53106,-0.30471 z"
       style="text-align:start;text-anchor:start;fill:#c4c3c6;fill-opacity:1;stroke-width:0.44810304"
       id="path5356" />
    <path
       d="m 174.61976,135.80113 q 0.5915,0 2.0075,0.21509 l 0.43018,0.0538 -0.0538,1.09337 q -1.43393,-0.16132 -2.11505,-0.16132 -1.52355,0 -2.0792,0.73489 -0.53772,0.71697 -0.53772,2.68862 0,1.95373 0.50188,2.72447 0.5198,0.77073 2.13297,0.77073 l 2.11504,-0.16131 0.0538,1.11129 q -1.66695,0.25094 -2.49146,0.25094 -2.09712,0 -2.90371,-1.07545 -0.78866,-1.07544 -0.78866,-3.62067 0,-2.56315 0.86036,-3.58482 0.86036,-1.0396 2.86786,-1.0396 z"
       style="text-align:start;text-anchor:start;fill:#c4c3c6;fill-opacity:1;stroke-width:0.44810304"
       id="path5358" />
    <path
       d="m 179.08285,144.94243 v -8.96206 h 1.32638 v 1.21884 q 1.5594,-1.07545 3.28011,-1.41601 v 1.36224 q -0.75281,0.14339 -1.57732,0.4481 -0.80658,0.30471 -1.23676,0.53772 l -0.44811,0.23302 v 6.57815 z"
       style="text-align:start;text-anchor:start;fill:#c4c3c6;fill-opacity:1;stroke-width:0.44810304"
       id="path5360" />
    <path
       d="m 185.28457,144.94243 v -8.96206 h 1.34431 v 8.96206 z m 0,-10.98749 v -1.5594 h 1.34431 v 1.5594 z"
       style="text-align:start;text-anchor:start;fill:#c4c3c6;fill-opacity:1;stroke-width:0.44810304"
       id="path5362" />
    <path
       d="m 189.20995,148.92158 v -12.94121 h 1.32639 v 0.64527 q 1.36223,-0.82451 2.68861,-0.82451 1.7028,0 2.47353,1.09337 0.77074,1.07545 0.77074,3.5669 0,2.49145 -0.91413,3.58482 -0.89621,1.07545 -2.99333,1.07545 -1.09337,0 -2.0075,-0.19717 v 3.99708 z m 3.81784,-11.91954 q -0.53772,0 -1.16507,0.17924 -0.60942,0.17925 -0.9679,0.35849 l -0.34056,0.17924 v 6.04043 q 1.27261,0.19716 1.93581,0.19716 1.45185,0 2.02542,-0.82451 0.5915,-0.82451 0.5915,-2.68862 0,-1.8641 -0.53773,-2.65277 -0.5198,-0.78866 -1.54147,-0.78866 z"
       style="text-align:start;text-anchor:start;fill:#c4c3c6;fill-opacity:1;stroke-width:0.44810304"
       id="path5364" />
    <path
       d="m 203.24451,137.14544 h -2.84993 v 4.28386 q 0,1.54148 0.21508,2.02543 0.23302,0.48395 1.07545,0.48395 l 1.59525,-0.10755 0.0896,1.1113 q -1.20092,0.19716 -1.82826,0.19716 -1.39808,0 -1.93581,-0.68111 -0.53772,-0.68112 -0.53772,-2.599 v -4.71404 h -1.27261 v -1.16507 h 1.27261 v -2.74239 h 1.32639 v 2.74239 h 2.84993 z"
       style="text-align:start;text-anchor:start;fill:#c4c3c6;fill-opacity:1;stroke-width:0.44810304"
       id="path5366" />
    <path
       d="m 210.55754,137.14544 v 7.79699 h -1.34431 v -7.79699 h -1.12921 v -1.16507 h 1.12921 v -0.80659 q 0,-1.89995 0.53773,-2.58107 0.53772,-0.69904 1.88203,-0.69904 l 1.81034,0.12547 -0.0179,1.11129 q -1.00375,-0.0358 -1.66694,-0.0358 -0.64527,0 -0.93205,0.43018 -0.26887,0.43018 -0.26887,1.66695 v 0.78866 h 2.599 v 1.16507 z"
       style="text-align:start;text-anchor:start;fill:#c4c3c6;fill-opacity:1;stroke-width:0.44810304"
       id="path5368" />
    <path
       d="m 214.76969,144.94243 v -8.96206 h 1.32638 v 1.21884 q 1.5594,-1.07545 3.28012,-1.41601 v 1.36224 q -0.75281,0.14339 -1.57732,0.4481 -0.80659,0.30471 -1.23677,0.53772 l -0.4481,0.23302 v 6.57815 z"
       style="text-align:start;text-anchor:start;fill:#c4c3c6;fill-opacity:1;stroke-width:0.44810304"
       id="path5370" />
    <path
       d="m 227.29863,138.68691 v 4.58858 q 0.0538,0.66319 1.03959,0.78866 l -0.0538,1.05752 q -1.416,0 -2.13297,-0.71697 -1.61317,0.71697 -3.22634,0.71697 -1.23676,0 -1.88203,-0.69904 -0.64527,-0.69904 -0.64527,-2.0075 0,-1.30846 0.66319,-1.91788 0.66319,-0.62735 2.0792,-0.77074 l 2.81409,-0.26886 v -0.77074 q 0,-0.91413 -0.39433,-1.30846 -0.39433,-0.39433 -1.07545,-0.39433 -1.43393,0 -2.97541,0.17924 l -0.55564,0.0538 -0.0538,-1.02167 q 1.97166,-0.39433 3.49521,-0.39433 1.52355,0 2.20466,0.69904 0.69905,0.69904 0.69905,2.18674 z m -5.52063,3.65652 q 0,1.64902 1.36223,1.64902 1.21884,0 2.40183,-0.41225 l 0.41226,-0.1434 v -2.95748 l -2.65277,0.25094 q -0.80659,0.0717 -1.16507,0.46603 -0.35848,0.39433 -0.35848,1.14714 z"
       style="text-align:start;text-anchor:start;fill:#c4c3c6;fill-opacity:1;stroke-width:0.44810304"
       id="path5372" />
    <path
       d="m 231.2957,144.94243 h -1.34431 v -8.96206 h 1.32639 v 0.62734 q 1.34431,-0.80658 2.61692,-0.80658 1.66694,0 2.33013,0.91413 0.5915,-0.35849 1.52355,-0.62735 0.94998,-0.28678 1.66695,-0.28678 1.79241,0 2.40183,0.9679 0.62734,0.94998 0.62734,3.44143 v 4.73197 h -1.34431 v -4.69612 q 0,-1.86411 -0.35848,-2.54523 -0.35848,-0.69904 -1.52355,-0.69904 -0.59149,0 -1.21884,0.17924 -0.62734,0.16132 -0.9679,0.32264 l -0.34056,0.16132 q 0.23301,0.59149 0.23301,2.61692 v 4.66027 h -1.3443 v -4.62442 q 0,-1.93581 -0.35849,-2.61693 -0.34056,-0.69904 -1.52355,-0.69904 -0.57357,0 -1.18299,0.17924 -0.5915,0.16132 -0.91413,0.32264 l -0.30471,0.16132 z"
       style="text-align:start;text-anchor:start;fill:#c4c3c6;fill-opacity:1;stroke-width:0.44810304"
       id="path5374" />
    <path
       d="m 251.03014,143.83113 0.51979,-0.0538 0.0359,1.05752 q -2.04335,0.28679 -3.4952,0.28679 -1.93581,0 -2.74239,-1.1113 -0.80659,-1.12922 -0.80659,-3.4952 0,-4.71404 3.74614,-4.71404 1.81034,0 2.70655,1.02167 0.8962,1.00375 0.8962,3.17257 l -0.0717,1.02168 h -5.91496 q 0,1.4877 0.53772,2.20466 0.53772,0.71697 1.86411,0.71697 1.34431,0 2.72447,-0.10755 z m -0.48396,-3.88953 q 0,-1.64902 -0.53772,-2.33014 -0.5198,-0.68111 -1.72072,-0.68111 -1.18299,0 -1.79241,0.71696 -0.59149,0.71697 -0.60942,2.29429 z"
       style="text-align:start;text-anchor:start;fill:#c4c3c6;fill-opacity:1;stroke-width:0.44810304"
       id="path5376" />
    <path
       d="m 253.16307,135.98037 h 1.3443 l 1.81034,7.79699 h 0.28679 l 2.13297,-7.61775 h 1.39808 l 2.13297,7.61775 h 0.30471 l 1.79241,-7.79699 h 1.34431 l -2.13297,8.96206 h -2.24051 l -1.89996,-7.00833 -1.89996,7.00833 h -2.24051 z"
       style="text-align:start;text-anchor:start;fill:#c4c3c6;fill-opacity:1;stroke-width:0.44810304"
       id="path5378" />
    <path
       d="m 267.07215,140.44347 q 0,-2.4556 0.87828,-3.54897 0.87829,-1.09337 2.95748,-1.09337 2.09713,0 2.95748,1.09337 0.87829,1.09337 0.87829,3.54897 0,2.45561 -0.82451,3.5669 -0.82451,1.1113 -3.01126,1.1113 -2.18674,0 -3.01125,-1.1113 -0.82451,-1.11129 -0.82451,-3.5669 z m 1.38016,-0.0179 q 0,1.95373 0.46603,2.74239 0.48395,0.78866 1.98957,0.78866 1.52355,0 1.98958,-0.77074 0.46603,-0.78866 0.46603,-2.76031 0,-1.97165 -0.5198,-2.70654 -0.5198,-0.75282 -1.93581,-0.75282 -1.39808,0 -1.9358,0.75282 -0.5198,0.73489 -0.5198,2.70654 z"
       style="text-align:start;text-anchor:start;fill:#c4c3c6;fill-opacity:1;stroke-width:0.44810304"
       id="path5380" />
    <path
       d="m 276.93043,144.94243 v -8.96206 h 1.32638 v 1.21884 q 1.5594,-1.07545 3.28011,-1.41601 v 1.36224 q -0.75281,0.14339 -1.57732,0.4481 -0.80658,0.30471 -1.23676,0.53772 l -0.44811,0.23302 v 6.57815 z"
       style="text-align:start;text-anchor:start;fill:#c4c3c6;fill-opacity:1;stroke-width:0.44810304"
       id="path5382" />
    <path
       d="m 284.47646,144.94243 h -1.34431 v -12.86952 h 1.34431 v 7.59983 l 1.39808,-0.0717 2.56315,-3.62067 h 1.52355 l -2.92163,4.12255 3.0471,4.83951 h -1.52355 l -2.6707,-4.1584 -1.416,0.0538 z"
       style="text-align:start;text-anchor:start;fill:#c4c3c6;fill-opacity:1;stroke-width:0.44810304"
       id="path5384" />
    <path
       d="m 297.38178,137.14544 v 7.79699 h -1.34431 v -7.79699 h -1.12922 v -1.16507 h 1.12922 v -0.80659 q 0,-1.89995 0.53772,-2.58107 0.53773,-0.69904 1.88204,-0.69904 l 1.81033,0.12547 -0.0179,1.11129 q -1.00375,-0.0358 -1.66695,-0.0358 -0.64526,0 -0.93205,0.43018 -0.26886,0.43018 -0.26886,1.66695 v 0.78866 h 2.599 v 1.16507 z"
       style="text-align:start;text-anchor:start;fill:#c4c3c6;fill-opacity:1;stroke-width:0.44810304"
       id="path5386" />
    <path
       d="m 301.03828,140.44347 q 0,-2.4556 0.87828,-3.54897 0.87828,-1.09337 2.95748,-1.09337 2.09712,0 2.95748,1.09337 0.87828,1.09337 0.87828,3.54897 0,2.45561 -0.82451,3.5669 -0.82451,1.1113 -3.01125,1.1113 -2.18674,0 -3.01125,-1.1113 -0.82451,-1.11129 -0.82451,-3.5669 z m 1.38015,-0.0179 q 0,1.95373 0.46603,2.74239 0.48395,0.78866 1.98958,0.78866 1.52355,0 1.98958,-0.77074 0.46602,-0.78866 0.46602,-2.76031 0,-1.97165 -0.5198,-2.70654 -0.5198,-0.75282 -1.9358,-0.75282 -1.39808,0 -1.93581,0.75282 -0.5198,0.73489 -0.5198,2.70654 z"
       style="text-align:start;text-anchor:start;fill:#c4c3c6;fill-opacity:1;stroke-width:0.44810304"
       id="path5388" />
    <path
       d="m 310.89654,144.94243 v -8.96206 h 1.32638 v 1.21884 q 1.5594,-1.07545 3.28012,-1.41601 v 1.36224 q -0.75282,0.14339 -1.57733,0.4481 -0.80658,0.30471 -1.23676,0.53772 l -0.44811,0.23302 v 6.57815 z"
       style="text-align:start;text-anchor:start;fill:#c4c3c6;fill-opacity:1;stroke-width:0.44810304"
       id="path5390" />
    <path
       d="m 324.39335,135.80113 q 0.5915,0 2.0075,0.21509 l 0.43018,0.0538 -0.0538,1.09337 q -1.43393,-0.16132 -2.11505,-0.16132 -1.52355,0 -2.0792,0.73489 -0.53772,0.71697 -0.53772,2.68862 0,1.95373 0.50188,2.72447 0.5198,0.77073 2.13297,0.77073 l 2.11504,-0.16131 0.0538,1.11129 q -1.66695,0.25094 -2.49146,0.25094 -2.09712,0 -2.90371,-1.07545 -0.78866,-1.07544 -0.78866,-3.62067 0,-2.56315 0.86036,-3.58482 0.86036,-1.0396 2.86786,-1.0396 z"
       style="text-align:start;text-anchor:start;fill:#c4c3c6;fill-opacity:1;stroke-width:0.44810304"
       id="path5392" />
    <path
       d="m 334.44878,135.98037 h 1.34431 v 8.96206 h -1.34431 v -0.62735 q -1.34431,0.80659 -2.65277,0.80659 -1.82826,0 -2.43768,-0.94998 -0.5915,-0.94998 -0.5915,-3.51313 v -4.67819 h 1.34431 v 4.66027 q 0,1.95373 0.34056,2.61692 0.34056,0.66319 1.54147,0.66319 0.5915,0 1.20092,-0.16131 0.60942,-0.17924 0.93205,-0.34056 l 0.32264,-0.16132 z"
       style="text-align:start;text-anchor:start;fill:#c4c3c6;fill-opacity:1;stroke-width:0.44810304"
       id="path5394" />
    <path
       d="m 341.18821,137.00204 q -1.95373,0 -1.95373,1.36224 0,0.62734 0.4481,0.8962 0.4481,0.25094 2.04335,0.53773 1.59525,0.26886 2.25844,0.77073 0.66319,0.50188 0.66319,1.88204 0,1.38015 -0.8962,2.02542 -0.87828,0.64527 -2.58108,0.64527 -1.11129,0 -2.61692,-0.25094 l -0.53772,-0.0896 0.0717,-1.16507 q 2.04335,0.30471 3.08295,0.30471 1.0396,0 1.57733,-0.32263 0.55564,-0.34056 0.55564,-1.1113 0,-0.78866 -0.46602,-1.05752 -0.46603,-0.28679 -2.04335,-0.53772 -1.57733,-0.25094 -2.24052,-0.73489 -0.66319,-0.48395 -0.66319,-1.79241 0,-1.30847 0.91413,-1.93581 0.93205,-0.62734 2.31221,-0.62734 1.09337,0 2.74239,0.25093 l 0.50188,0.0896 -0.0358,1.14715 q -1.98958,-0.28679 -3.13672,-0.28679 z"
       style="text-align:start;text-anchor:start;fill:#c4c3c6;fill-opacity:1;stroke-width:0.44810304"
       id="path5396" />
    <path
       d="m 351.35115,137.14544 h -2.84993 v 4.28386 q 0,1.54148 0.21509,2.02543 0.23301,0.48395 1.07545,0.48395 l 1.59524,-0.10755 0.0896,1.1113 q -1.20091,0.19716 -1.82826,0.19716 -1.39808,0 -1.9358,-0.68111 -0.53773,-0.68112 -0.53773,-2.599 v -4.71404 h -1.27261 v -1.16507 h 1.27261 v -2.74239 h 1.32639 v 2.74239 h 2.84993 z"
       style="text-align:start;text-anchor:start;fill:#c4c3c6;fill-opacity:1;stroke-width:0.44810304"
       id="path5398" />
    <path
       d="m 352.60586,140.44347 q 0,-2.4556 0.87828,-3.54897 0.87828,-1.09337 2.95748,-1.09337 2.09712,0 2.95748,1.09337 0.87828,1.09337 0.87828,3.54897 0,2.45561 -0.82451,3.5669 -0.82451,1.1113 -3.01125,1.1113 -2.18674,0 -3.01125,-1.1113 -0.82451,-1.11129 -0.82451,-3.5669 z m 1.38016,-0.0179 q 0,1.95373 0.46602,2.74239 0.48395,0.78866 1.98958,0.78866 1.52355,0 1.98958,-0.77074 0.46602,-0.78866 0.46602,-2.76031 0,-1.97165 -0.51979,-2.70654 -0.5198,-0.75282 -1.93581,-0.75282 -1.39808,0 -1.93581,0.75282 -0.51979,0.73489 -0.51979,2.70654 z"
       style="text-align:start;text-anchor:start;fill:#c4c3c6;fill-opacity:1;stroke-width:0.44810304"
       id="path5400" />
    <path
       d="m 363.80843,144.94243 h -1.34431 v -8.96206 h 1.32638 v 0.62734 q 1.34431,-0.80658 2.61692,-0.80658 1.66695,0 2.33014,0.91413 0.5915,-0.35849 1.52355,-0.62735 0.94998,-0.28678 1.66694,-0.28678 1.79242,0 2.40184,0.9679 0.62734,0.94998 0.62734,3.44143 v 4.73197 h -1.34431 v -4.69612 q 0,-1.86411 -0.35848,-2.54523 -0.35848,-0.69904 -1.52355,-0.69904 -0.5915,0 -1.21884,0.17924 -0.62735,0.16132 -0.9679,0.32264 l -0.34056,0.16132 q 0.23301,0.59149 0.23301,2.61692 v 4.66027 h -1.34431 v -4.62442 q 0,-1.93581 -0.35848,-2.61693 -0.34056,-0.69904 -1.52355,-0.69904 -0.57357,0 -1.18299,0.17924 -0.5915,0.16132 -0.91413,0.32264 l -0.30471,0.16132 z"
       style="text-align:start;text-anchor:start;fill:#c4c3c6;fill-opacity:1;stroke-width:0.44810304"
       id="path5402" />
    <path
       d="m 384.36735,145.12167 q -1.81034,0 -2.599,-1.05752 -0.77074,-1.05753 -0.77074,-3.58483 0,-2.5273 0.93206,-3.60275 0.93205,-1.07544 3.29803,-1.07544 l 2.99333,0.17924 v 12.94121 h -1.32638 v -4.39141 q -1.25469,0.5915 -2.5273,0.5915 z m 0.87828,-8.15548 q -1.68487,0 -2.29429,0.84244 -0.59149,0.84243 -0.59149,2.68862 0,1.82826 0.48395,2.63484 0.50187,0.78866 1.66694,0.78866 1.0396,0 2.06127,-0.39433 l 0.32264,-0.12547 v -6.32721 q -1.1113,-0.10755 -1.64902,-0.10755 z"
       style="text-align:start;text-anchor:start;fill:#c4c3c6;fill-opacity:1;stroke-width:0.44810304"
       id="path5404" />
    <path
       d="m 396.41234,135.98037 h 1.34431 v 8.96206 h -1.34431 v -0.62735 q -1.34431,0.80659 -2.65277,0.80659 -1.82826,0 -2.43768,-0.94998 -0.5915,-0.94998 -0.5915,-3.51313 v -4.67819 h 1.34431 v 4.66027 q 0,1.95373 0.34056,2.61692 0.34056,0.66319 1.54147,0.66319 0.5915,0 1.20092,-0.16131 0.60942,-0.17924 0.93205,-0.34056 l 0.32264,-0.16132 z"
       style="text-align:start;text-anchor:start;fill:#c4c3c6;fill-opacity:1;stroke-width:0.44810304"
       id="path5406" />
    <path
       d="m 406.43188,143.83113 0.5198,-0.0538 0.0358,1.05752 q -2.04335,0.28679 -3.4952,0.28679 -1.93581,0 -2.74239,-1.1113 -0.80659,-1.12922 -0.80659,-3.4952 0,-4.71404 3.74614,-4.71404 1.81034,0 2.70655,1.02167 0.8962,1.00375 0.8962,3.17257 l -0.0717,1.02168 h -5.91496 q 0,1.4877 0.53772,2.20466 0.53772,0.71697 1.86411,0.71697 1.34431,0 2.72446,-0.10755 z m -0.48395,-3.88953 q 0,-1.64902 -0.53772,-2.33014 -0.5198,-0.68111 -1.72072,-0.68111 -1.18299,0 -1.79241,0.71696 -0.59149,0.71697 -0.60942,2.29429 z"
       style="text-align:start;text-anchor:start;fill:#c4c3c6;fill-opacity:1;stroke-width:0.44810304"
       id="path5408" />
    <path
       d="m 409.38935,144.94243 v -8.96206 h 1.32638 v 1.21884 q 1.5594,-1.07545 3.28012,-1.41601 v 1.36224 q -0.75281,0.14339 -1.57732,0.4481 -0.80659,0.30471 -1.23677,0.53772 l -0.4481,0.23302 v 6.57815 z"
       style="text-align:start;text-anchor:start;fill:#c4c3c6;fill-opacity:1;stroke-width:0.44810304"
       id="path5410" />
    <path
       d="m 414.74864,135.98037 h 1.34431 l 2.24051,7.79699 h 0.5915 l 2.25844,-7.79699 h 1.34431 l -3.72822,12.94121 h -1.34431 l 1.16507,-3.97915 h -1.32639 z"
       style="text-align:start;text-anchor:start;fill:#c4c3c6;fill-opacity:1;stroke-width:0.44810304"
       id="path5412" />
    <path
       d="m 429.53603,144.94243 h -1.34431 v -8.96206 h 1.32638 v 0.62734 q 1.45186,-0.80658 2.77824,-0.80658 1.79241,0 2.40183,0.9679 0.62735,0.9679 0.62735,3.44143 v 4.73197 h -1.32639 v -4.69612 q 0,-1.86411 -0.3764,-2.54523 -0.35849,-0.69904 -1.5594,-0.69904 -0.57357,0 -1.21884,0.17924 -0.62735,0.16132 -0.96791,0.32264 l -0.34055,0.16132 z"
       style="text-align:start;text-anchor:start;fill:#c4c3c6;fill-opacity:1;stroke-width:0.44810304"
       id="path5414" />
    <path
       d="m 437.42263,140.44347 q 0,-2.4556 0.87828,-3.54897 0.87828,-1.09337 2.95748,-1.09337 2.09712,0 2.95748,1.09337 0.87828,1.09337 0.87828,3.54897 0,2.45561 -0.8245,3.5669 -0.82451,1.1113 -3.01126,1.1113 -2.18674,0 -3.01125,-1.1113 -0.82451,-1.11129 -0.82451,-3.5669 z m 1.38016,-0.0179 q 0,1.95373 0.46603,2.74239 0.48395,0.78866 1.98957,0.78866 1.52355,0 1.98958,-0.77074 0.46603,-0.78866 0.46603,-2.76031 0,-1.97165 -0.5198,-2.70654 -0.5198,-0.75282 -1.93581,-0.75282 -1.39808,0 -1.9358,0.75282 -0.5198,0.73489 -0.5198,2.70654 z"
       style="text-align:start;text-anchor:start;fill:#c4c3c6;fill-opacity:1;stroke-width:0.44810304"
       id="path5416" />
    <path
       d="m 454.16375,132.07291 v 12.86952 h -1.32638 v -0.60942 q -1.38016,0.78866 -2.72447,0.78866 -0.71696,0 -1.25469,-0.17924 -0.53772,-0.17924 -1.00375,-0.64527 -0.9679,-0.9679 -0.9679,-3.5669 0,-2.61692 0.86036,-3.76407 0.87828,-1.16506 2.88578,-1.16506 1.0396,0 2.20467,0.23301 v -3.96123 z m -5.26969,11.25635 q 0.28679,0.34056 0.60942,0.46602 0.32263,0.12547 0.82451,0.12547 0.5198,0 1.14714,-0.16131 0.64527,-0.17924 1.00375,-0.34056 l 0.35849,-0.16132 v -6.07628 q -1.14715,-0.21509 -2.13297,-0.21509 -1.36224,0 -1.89996,0.87829 -0.53772,0.86035 -0.53772,2.68861 0,2.0792 0.62734,2.79617 z"
       style="text-align:start;text-anchor:start;fill:#c4c3c6;fill-opacity:1;stroke-width:0.44810304"
       id="path5418" />
    <path
       d="m 462.85693,143.83113 0.5198,-0.0538 0.0358,1.05752 q -2.04335,0.28679 -3.4952,0.28679 -1.93581,0 -2.74239,-1.1113 -0.80659,-1.12922 -0.80659,-3.4952 0,-4.71404 3.74614,-4.71404 1.81034,0 2.70654,1.02167 0.89621,1.00375 0.89621,3.17257 l -0.0717,1.02168 h -5.91496 q 0,1.4877 0.53773,2.20466 0.53772,0.71697 1.86411,0.71697 1.34431,0 2.72446,-0.10755 z m -0.48395,-3.88953 q 0,-1.64902 -0.53772,-2.33014 -0.5198,-0.68111 -1.72072,-0.68111 -1.18299,0 -1.79241,0.71696 -0.5915,0.71697 -0.60942,2.29429 z"
       style="text-align:start;text-anchor:start;fill:#c4c3c6;fill-opacity:1;stroke-width:0.44810304"
       id="path5420" />
    <path
       d="m 469.7577,144.94243 v -8.96206 h 1.32638 v 1.21884 q 1.5594,-1.07545 3.28012,-1.41601 v 1.36224 q -0.75282,0.14339 -1.57733,0.4481 -0.80658,0.30471 -1.23676,0.53772 l -0.4481,0.23302 v 6.57815 z"
       style="text-align:start;text-anchor:start;fill:#c4c3c6;fill-opacity:1;stroke-width:0.44810304"
       id="path5422" />
    <path
       d="m 481.87439,143.83113 0.5198,-0.0538 0.0359,1.05752 q -2.04335,0.28679 -3.49521,0.28679 -1.9358,0 -2.74239,-1.1113 -0.80658,-1.12922 -0.80658,-3.4952 0,-4.71404 3.74614,-4.71404 1.81033,0 2.70654,1.02167 0.89621,1.00375 0.89621,3.17257 l -0.0717,1.02168 h -5.91496 q 0,1.4877 0.53772,2.20466 0.53773,0.71697 1.86411,0.71697 1.34431,0 2.72447,-0.10755 z m -0.48395,-3.88953 q 0,-1.64902 -0.53773,-2.33014 -0.5198,-0.68111 -1.72071,-0.68111 -1.18299,0 -1.79241,0.71696 -0.5915,0.71697 -0.60942,2.29429 z"
       style="text-align:start;text-anchor:start;fill:#c4c3c6;fill-opacity:1;stroke-width:0.44810304"
       id="path5424" />
    <path
       d="m 487.64594,137.00204 q -1.95373,0 -1.95373,1.36224 0,0.62734 0.4481,0.8962 0.44811,0.25094 2.04335,0.53773 1.59525,0.26886 2.25844,0.77073 0.6632,0.50188 0.6632,1.88204 0,1.38015 -0.89621,2.02542 -0.87828,0.64527 -2.58107,0.64527 -1.1113,0 -2.61693,-0.25094 l -0.53772,-0.0896 0.0717,-1.16507 q 2.04335,0.30471 3.08295,0.30471 1.0396,0 1.57732,-0.32263 0.55565,-0.34056 0.55565,-1.1113 0,-0.78866 -0.46603,-1.05752 -0.46603,-0.28679 -2.04335,-0.53772 -1.57732,-0.25094 -2.24052,-0.73489 -0.66319,-0.48395 -0.66319,-1.79241 0,-1.30847 0.91413,-1.93581 0.93206,-0.62734 2.31221,-0.62734 1.09338,0 2.7424,0.25093 l 0.50187,0.0896 -0.0358,1.14715 q -1.98958,-0.28679 -3.13672,-0.28679 z"
       style="text-align:start;text-anchor:start;fill:#c4c3c6;fill-opacity:1;stroke-width:0.44810304"
       id="path5426" />
    <path
       d="m 492.77221,140.44347 q 0,-2.4556 0.87828,-3.54897 0.87828,-1.09337 2.95748,-1.09337 2.09712,0 2.95748,1.09337 0.87828,1.09337 0.87828,3.54897 0,2.45561 -0.82451,3.5669 -0.82451,1.1113 -3.01125,1.1113 -2.18674,0 -3.01125,-1.1113 -0.82451,-1.11129 -0.82451,-3.5669 z m 1.38016,-0.0179 q 0,1.95373 0.46602,2.74239 0.48396,0.78866 1.98958,0.78866 1.52355,0 1.98958,-0.77074 0.46603,-0.78866 0.46603,-2.76031 0,-1.97165 -0.5198,-2.70654 -0.5198,-0.75282 -1.93581,-0.75282 -1.39808,0 -1.9358,0.75282 -0.5198,0.73489 -0.5198,2.70654 z"
       style="text-align:start;text-anchor:start;fill:#c4c3c6;fill-opacity:1;stroke-width:0.44810304"
       id="path5428" />
    <path
       d="m 502.73801,144.94243 v -12.86952 h 1.34431 v 12.86952 z"
       style="text-align:start;text-anchor:start;fill:#c4c3c6;fill-opacity:1;stroke-width:0.44810304"
       id="path5430" />
    <path
       d="m 505.92848,135.98037 h 1.43393 l 2.09712,7.79699 h 0.66319 l 2.16882,-7.79699 h 1.38016 l -2.5273,8.96206 h -2.68862 z"
       style="text-align:start;text-anchor:start;fill:#c4c3c6;fill-opacity:1;stroke-width:0.44810304"
       id="path5432" />
    <path
       d="m 521.32529,143.83113 0.5198,-0.0538 0.0358,1.05752 q -2.04335,0.28679 -3.4952,0.28679 -1.9358,0 -2.74239,-1.1113 -0.80659,-1.12922 -0.80659,-3.4952 0,-4.71404 3.74615,-4.71404 1.81033,0 2.70654,1.02167 0.8962,1.00375 0.8962,3.17257 l -0.0717,1.02168 h -5.91496 q 0,1.4877 0.53772,2.20466 0.53772,0.71697 1.86411,0.71697 1.34431,0 2.72447,-0.10755 z m -0.48396,-3.88953 q 0,-1.64902 -0.53772,-2.33014 -0.5198,-0.68111 -1.72071,-0.68111 -1.183,0 -1.79242,0.71696 -0.59149,0.71697 -0.60942,2.29429 z"
       style="text-align:start;text-anchor:start;fill:#c4c3c6;fill-opacity:1;stroke-width:0.44810304"
       id="path5434" />
    <path
       d="m 524.28275,144.94243 v -8.96206 h 1.32639 v 1.21884 q 1.55939,-1.07545 3.28011,-1.41601 v 1.36224 q -0.75281,0.14339 -1.57732,0.4481 -0.80659,0.30471 -1.23677,0.53772 l -0.4481,0.23302 v 6.57815 z"
       style="text-align:start;text-anchor:start;fill:#c4c3c6;fill-opacity:1;stroke-width:0.44810304"
       id="path5436" />
    <path
       d="m 533.29856,137.00204 q -1.95373,0 -1.95373,1.36224 0,0.62734 0.4481,0.8962 0.44811,0.25094 2.04335,0.53773 1.59525,0.26886 2.25844,0.77073 0.66319,0.50188 0.66319,1.88204 0,1.38015 -0.8962,2.02542 -0.87828,0.64527 -2.58107,0.64527 -1.1113,0 -2.61693,-0.25094 l -0.53772,-0.0896 0.0717,-1.16507 q 2.04335,0.30471 3.08295,0.30471 1.03959,0 1.57732,-0.32263 0.55565,-0.34056 0.55565,-1.1113 0,-0.78866 -0.46603,-1.05752 -0.46603,-0.28679 -2.04335,-0.53772 -1.57732,-0.25094 -2.24052,-0.73489 -0.66319,-0.48395 -0.66319,-1.79241 0,-1.30847 0.91413,-1.93581 0.93206,-0.62734 2.31221,-0.62734 1.09337,0 2.74239,0.25093 l 0.50188,0.0896 -0.0358,1.14715 q -1.98958,-0.28679 -3.13672,-0.28679 z"
       style="text-align:start;text-anchor:start;fill:#c4c3c6;fill-opacity:1;stroke-width:0.44810304"
       id="path5438" />
  </g>
</svg>
